<?xml version="1.0" standalone="no"?>
<!DOCTYPE svg PUBLIC "-//W3C//DTD SVG 20010904//EN"
 "http://www.w3.org/TR/2001/REC-SVG-20010904/DTD/svg10.dtd">
<svg version="1.0" xmlns="http://www.w3.org/2000/svg"
 width="320.000000pt" height="320.000000pt" viewBox="0 0 320.000000 320.000000"
 preserveAspectRatio="xMidYMid meet">
<metadata>
Created by potrace 1.14, written by Peter Selinger 2001-2017
</metadata>
<g transform="translate(0.000000,320.000000) scale(0.100000,-0.100000)"
fill="#000000" stroke="none">
<path d="M368 3083 c-36 -43 -77 -143 -95 -229 -13 -64 -5 -183 17 -248 18
-54 65 -136 89 -156 4 -3 49 -54 101 -115 52 -60 97 -112 100 -115 3 -3 79
-90 170 -195 90 -104 169 -195 175 -201 5 -6 33 -37 60 -69 28 -32 55 -63 60
-69 6 -6 53 -61 105 -121 52 -61 97 -112 100 -115 3 -3 18 -19 33 -36 l28 -31
-255 -255 -254 -256 -54 15 c-63 17 -171 12 -238 -11 -145 -51 -260 -217 -260
-374 0 -352 424 -531 677 -287 77 74 116 164 119 275 l3 85 273 268 c150 147
276 267 279 267 8 0 97 -87 380 -365 l176 -174 -5 -50 c-12 -144 86 -312 222
-379 104 -52 240 -53 351 -2 72 33 167 133 195 206 120 310 -151 623 -467 541
l-51 -14 -256 256 c-191 192 -252 259 -243 267 11 10 29 30 121 134 12 14 62
72 111 130 50 58 95 110 101 115 6 6 37 42 70 80 32 39 61 72 64 75 6 5 183
208 265 304 28 32 58 68 68 80 11 11 40 45 65 75 26 29 59 68 74 85 91 103
119 288 68 450 -43 135 -89 195 -133 169 -8 -4 -70 -60 -138 -123 -67 -63
-150 -140 -182 -170 -33 -30 -76 -70 -96 -89 -120 -112 -339 -315 -407 -377
-53 -50 -255 -237 -302 -282 -25 -23 -49 -41 -53 -40 -4 2 -33 27 -65 57 -114
105 -278 256 -304 281 -14 14 -79 75 -144 135 -171 159 -177 164 -247 229 -56
52 -171 158 -359 334 -58 54 -87 63 -112 35z m112 -173 c9 -8 67 -62 130 -120
62 -58 127 -118 145 -135 17 -16 78 -73 136 -126 57 -54 120 -112 140 -130
127 -119 265 -247 284 -264 157 -145 205 -191 205 -196 0 -4 -28 -34 -62 -66
-34 -32 -80 -76 -101 -98 -43 -44 -87 -126 -87 -165 -1 -23 -4 -21 -48 26 -26
28 -69 78 -97 110 -58 68 -255 294 -270 310 -5 6 -32 37 -60 69 -27 33 -121
140 -208 239 -191 217 -219 266 -220 384 0 53 6 100 22 151 l22 73 26 -23 c15
-13 34 -31 43 -39z m2330 3 c45 -120 30 -273 -36 -361 -23 -31 -337 -396 -354
-412 -3 -3 -32 -36 -65 -75 -33 -38 -64 -75 -70 -81 -37 -41 -78 -88 -130
-149 -58 -67 -109 -126 -130 -149 -6 -6 -37 -42 -70 -81 -33 -38 -64 -75 -70
-81 -160 -182 -190 -204 -285 -204 -168 0 -279 171 -212 323 21 48 21 48 182
197 63 58 126 116 140 130 25 23 210 196 269 249 26 24 239 222 291 271 26 25
55 52 270 250 62 58 143 133 179 167 36 34 67 63 68 63 1 0 11 -26 23 -57z
m-1386 -1645 c28 -17 63 -43 78 -56 l27 -25 -118 -116 c-65 -64 -197 -192
-292 -286 l-174 -169 0 -96 c0 -113 -19 -164 -85 -230 -153 -153 -413 -97
-490 107 -18 47 -21 71 -17 126 17 199 205 322 395 258 35 -12 71 -19 80 -16
10 3 134 125 277 270 143 145 262 264 264 264 2 1 27 -13 55 -31z m677 -238
c149 -148 276 -270 283 -270 6 0 36 9 66 21 192 73 405 -76 403 -282 -2 -271
-327 -402 -515 -208 -72 74 -90 142 -78 292 2 25 -14 45 -111 139 -63 60 -201
196 -308 300 l-194 191 54 20 c30 11 68 30 84 43 17 13 34 23 38 24 4 0 130
-121 278 -270z"/>
<path d="M2390 2410 c-147 -147 -240 -248 -240 -259 0 -25 26 -51 51 -51 26 0
499 473 499 499 0 25 -26 51 -51 51 -11 0 -113 -94 -259 -240z"/>
<path d="M1966 1985 c-67 -66 -78 -91 -50 -119 27 -28 51 -18 118 49 67 66 78
92 50 119 -27 28 -51 18 -118 -49z"/>
<path d="M1552 1693 c-36 -7 -90 -69 -97 -114 -12 -73 15 -128 82 -163 40 -20
72 -20 121 -1 51 21 84 67 89 124 9 104 -80 175 -195 154z m80 -110 c22 -20
23 -41 1 -65 -20 -22 -41 -23 -65 -1 -21 19 -23 36 -6 63 16 24 45 26 70 3z"/>
<path d="M587 690 c-105 -33 -165 -161 -123 -261 36 -86 95 -124 192 -124 108
0 182 71 190 183 9 109 -68 199 -177 207 -29 3 -67 0 -82 -5z m112 -104 c59
-31 67 -102 17 -152 -38 -38 -72 -43 -116 -17 -49 29 -63 83 -33 133 28 48 80
62 132 36z"/>
<path d="M2466 680 c-48 -24 -68 -45 -94 -96 -25 -50 -25 -118 1 -169 25 -51
47 -72 104 -97 162 -72 329 104 254 267 -46 100 -167 144 -265 95z m134 -95
c98 -51 39 -204 -69 -180 -17 3 -42 21 -57 38 -34 40 -28 90 16 130 34 30 67
34 110 12z"/>
<path d="M366 2184 c-9 -8 -16 -25 -16 -37 0 -41 -20 -92 -47 -124 -31 -36
-104 -72 -145 -73 -50 0 -76 -51 -42 -84 13 -13 28 -17 69 -16 21 1 85 -37
110 -65 31 -33 55 -92 55 -132 0 -23 30 -53 53 -53 26 0 44 26 51 77 12 90 79
157 170 169 51 7 76 25 76 52 0 31 -17 44 -64 53 -26 5 -63 16 -82 25 -46 22
-93 91 -101 149 -9 70 -50 97 -87 59z m72 -244 l39 -40 -38 -39 -39 -39 -39
39 -39 39 37 39 c20 21 37 39 38 40 1 0 19 -17 41 -39z"/>
<path d="M2766 1584 c-9 -8 -16 -25 -16 -37 0 -74 -45 -139 -120 -177 -25 -13
-46 -22 -47 -21 -13 7 -55 -2 -67 -15 -39 -38 -10 -78 62 -88 92 -12 151 -75
171 -182 9 -47 22 -64 53 -64 27 0 45 25 51 74 13 92 80 160 171 172 26 4 54
13 62 21 32 33 5 83 -45 83 -89 0 -191 100 -191 187 0 35 -22 63 -50 63 -10 0
-26 -7 -34 -16z m72 -244 l39 -40 -38 -39 -39 -39 -39 39 -39 39 37 39 c20 21
37 39 38 40 1 0 19 -17 41 -39z"/>
</g>
</svg>
